<svg version="1.0" xmlns="http://www.w3.org/2000/svg" width="700pt" height="700pt" viewBox="0 0 700 700"><g transform="translate(0.000000,700.000000) scale(0.100000,-0.100000)" fill="#000" stroke="none"><path d="M12e2 3695V1480h575 575v763 764l488 6c518 7 609 12 821 53 356 67 621 199 831 413 201 205 312 447 351 764 17 142 6 454-20 574-59 270-162 464-336 638-187 187-419 311-715 384-275 67-221 65-1452 68l-1118 4V3695zm2e3 1365c243-50 408-204 455-425 19-89 19-250 0-337-44-209-194-360-420-425-51-14-121-17-472-21l-413-3v615 616h378c335 0 388-2 472-20z"/><path d="M6281 2315l-136-134 282-283 283-283 135 135c122 122 135 138 135 170s-19 53-248 282c-224 225-251 248-281 248-29 0-49-16-170-135z"/><path d="M5547 1582c-268-268-487-490-487-495 0-4 11-7 24-7 44 0 69-31 74-92l4-56 56-4c70-6 92-29 92-98v-48l56-4c71-6 87-23 94-96l5-57 58-5c63-6 87-24 87-67 0-13 3-23 8-23 4 0 226 219 494 487l487 488-277 283c-152 156-279 283-282 282-3 0-224-219-493-488z"/><path d="M4883 908c-24-26-333-791-333-823 0-33 36-65 73-65 42 0 785 296 817 326 21 20 25 30 22 72l-4 50-56 4c-70 6-92 29-92 99v49h-40c-46 0-95 21-104 45-3 9-6 39-6 66v49h-55c-42 0-60 5-75 20s-20 33-20 75v55h-53c-43 0-58-5-74-22z"/></g></svg>