<?xml version="1.0" standalone="no"?>
<!DOCTYPE svg PUBLIC "-//W3C//DTD SVG 20010904//EN"
 "http://www.w3.org/TR/2001/REC-SVG-20010904/DTD/svg10.dtd">
<svg version="1.0" xmlns="http://www.w3.org/2000/svg"
 width="700.000000pt" height="700.000000pt" viewBox="0 0 700.000000 700.000000"
 preserveAspectRatio="xMidYMid meet">
<metadata>
Created by potrace 1.14, written by Peter Selinger 2001-2017
</metadata>
<g transform="translate(0.000000,700.000000) scale(0.100000,-0.100000)"
fill="#000000" stroke="none">
<path d="M1200 3695 l0 -2215 575 0 575 0 0 763 0 764 488 6 c518 7 609 12
821 53 356 67 621 199 831 413 201 205 312 447 351 764 17 142 6 454 -20 574
-59 270 -162 464 -336 638 -187 187 -419 311 -715 384 -275 67 -221 65 -1452
68 l-1118 4 0 -2216z m2000 1365 c243 -50 408 -204 455 -425 19 -89 19 -250 0
-337 -44 -209 -194 -360 -420 -425 -51 -14 -121 -17 -472 -21 l-413 -3 0 615
0 616 378 0 c335 0 388 -2 472 -20z"/>
<path d="M6281 2315 l-136 -134 282 -283 283 -283 135 135 c122 122 135 138
135 170 0 32 -19 53 -248 282 -224 225 -251 248 -281 248 -29 0 -49 -16 -170
-135z"/>
<path d="M5547 1582 c-268 -268 -487 -490 -487 -495 0 -4 11 -7 24 -7 44 0 69
-31 74 -92 l4 -56 56 -4 c70 -6 92 -29 92 -98 l0 -48 56 -4 c71 -6 87 -23 94
-96 l5 -57 58 -5 c63 -6 87 -24 87 -67 0 -13 3 -23 8 -23 4 0 226 219 494 487
l487 488 -277 283 c-152 156 -279 283 -282 282 -3 0 -224 -219 -493 -488z"/>
<path d="M4883 908 c-24 -26 -333 -791 -333 -823 0 -33 36 -65 73 -65 42 0
785 296 817 326 21 20 25 30 22 72 l-4 50 -56 4 c-70 6 -92 29 -92 99 l0 49
-40 0 c-46 0 -95 21 -104 45 -3 9 -6 39 -6 66 l0 49 -55 0 c-42 0 -60 5 -75
20 -15 15 -20 33 -20 75 l0 55 -53 0 c-43 0 -58 -5 -74 -22z"/>
</g>
</svg>
